<svg id="visual" viewBox="0 0 900 600" width="900" height="600" xmlns="http://www.w3.org/2000/svg" xmlns:xlink="http://www.w3.org/1999/xlink" version="1.1"><g stroke-width="1" stroke-linejoin="bevel"><path d="M396 313L317 266L310 361Z" fill="#0c2435" stroke="#0c2435"></path><path d="M310 361L365 417L396 313Z" fill="#00101c" stroke="#00101c"></path><path d="M317 266L222 305L310 361Z" fill="#00101c" stroke="#00101c"></path><path d="M279 496L376 466L365 417Z" fill="#0c2435" stroke="#0c2435"></path><path d="M426 189L268 192L317 266Z" fill="#0c2435" stroke="#0c2435"></path><path d="M317 266L268 192L222 305Z" fill="#297ea6" stroke="#297ea6"></path><path d="M365 417L483 369L396 313Z" fill="#297ea6" stroke="#297ea6"></path><path d="M396 313L426 189L317 266Z" fill="#00101c" stroke="#00101c"></path><path d="M481 199L426 189L396 313Z" fill="#081a28" stroke="#081a28"></path><path d="M279 496L365 417L310 361Z" fill="#00101c" stroke="#00101c"></path><path d="M365 417L481 465L483 369Z" fill="#19435d" stroke="#19435d"></path><path d="M222 305L190 402L310 361Z" fill="#112e42" stroke="#112e42"></path><path d="M525 284L481 199L396 313Z" fill="#246688" stroke="#246688"></path><path d="M483 369L525 284L396 313Z" fill="#205a7a" stroke="#205a7a"></path><path d="M190 402L279 496L310 361Z" fill="#00101c" stroke="#00101c"></path><path d="M376 466L481 465L365 417Z" fill="#19435d" stroke="#19435d"></path><path d="M483 369L622 368L525 284Z" fill="#277297" stroke="#277297"></path><path d="M434 600L481 465L376 466Z" fill="#205a7a" stroke="#205a7a"></path><path d="M268 192L168 199L222 305Z" fill="#1d4e6b" stroke="#1d4e6b"></path><path d="M90 334L118 421L190 402Z" fill="#1d4e6b" stroke="#1d4e6b"></path><path d="M426 189L300 101L268 192Z" fill="#246688" stroke="#246688"></path><path d="M268 192L195 64L168 199Z" fill="#081a28" stroke="#081a28"></path><path d="M427 87L300 101L426 189Z" fill="#1d4e6b" stroke="#1d4e6b"></path><path d="M190 402L216 521L279 496Z" fill="#00101c" stroke="#00101c"></path><path d="M279 496L322 600L376 466Z" fill="#297ea6" stroke="#297ea6"></path><path d="M514 81L427 87L481 199Z" fill="#297ea6" stroke="#297ea6"></path><path d="M481 199L427 87L426 189Z" fill="#246688" stroke="#246688"></path><path d="M90 334L190 402L222 305Z" fill="#15384f" stroke="#15384f"></path><path d="M190 402L118 421L216 521Z" fill="#205a7a" stroke="#205a7a"></path><path d="M82 238L90 334L222 305Z" fill="#297ea6" stroke="#297ea6"></path><path d="M89 138L82 238L168 199Z" fill="#1d4e6b" stroke="#1d4e6b"></path><path d="M168 199L82 238L222 305Z" fill="#081a28" stroke="#081a28"></path><path d="M216 521L322 600L279 496Z" fill="#205a7a" stroke="#205a7a"></path><path d="M481 465L622 368L483 369Z" fill="#1d4e6b" stroke="#1d4e6b"></path><path d="M525 284L639 233L481 199Z" fill="#1d4e6b" stroke="#1d4e6b"></path><path d="M566 519L622 368L481 465Z" fill="#1d4e6b" stroke="#1d4e6b"></path><path d="M622 368L628 288L525 284Z" fill="#15384f" stroke="#15384f"></path><path d="M332 0L195 64L300 101Z" fill="#1d4e6b" stroke="#1d4e6b"></path><path d="M300 101L195 64L268 192Z" fill="#1d4e6b" stroke="#1d4e6b"></path><path d="M602 127L514 81L481 199Z" fill="#277297" stroke="#277297"></path><path d="M427 87L332 0L300 101Z" fill="#081a28" stroke="#081a28"></path><path d="M322 600L434 600L376 466Z" fill="#1d4e6b" stroke="#1d4e6b"></path><path d="M530 600L566 519L481 465Z" fill="#246688" stroke="#246688"></path><path d="M0 395L118 421L90 334Z" fill="#00101c" stroke="#00101c"></path><path d="M0 395L88 490L118 421Z" fill="#00101c" stroke="#00101c"></path><path d="M118 421L88 490L216 521Z" fill="#00101c" stroke="#00101c"></path><path d="M216 521L163 600L322 600Z" fill="#1d4e6b" stroke="#1d4e6b"></path><path d="M195 64L89 138L168 199Z" fill="#00101c" stroke="#00101c"></path><path d="M709 295L639 233L628 288Z" fill="#1d4e6b" stroke="#1d4e6b"></path><path d="M628 288L639 233L525 284Z" fill="#081a28" stroke="#081a28"></path><path d="M417 0L332 0L427 87Z" fill="#112e42" stroke="#112e42"></path><path d="M639 233L602 127L481 199Z" fill="#277297" stroke="#277297"></path><path d="M514 81L417 0L427 87Z" fill="#081a28" stroke="#081a28"></path><path d="M522 0L417 0L514 81Z" fill="#19435d" stroke="#19435d"></path><path d="M88 490L163 600L216 521Z" fill="#15384f" stroke="#15384f"></path><path d="M82 238L0 334L90 334Z" fill="#15384f" stroke="#15384f"></path><path d="M0 187L0 334L82 238Z" fill="#205a7a" stroke="#205a7a"></path><path d="M434 600L530 600L481 465Z" fill="#15384f" stroke="#15384f"></path><path d="M0 334L0 395L90 334Z" fill="#112e42" stroke="#112e42"></path><path d="M88 490L78 600L163 600Z" fill="#277297" stroke="#277297"></path><path d="M623 0L522 0L514 81Z" fill="#15384f" stroke="#15384f"></path><path d="M332 0L160 0L195 64Z" fill="#0c2435" stroke="#0c2435"></path><path d="M195 64L138 0L89 138Z" fill="#246688" stroke="#246688"></path><path d="M0 89L0 187L89 138Z" fill="#19435d" stroke="#19435d"></path><path d="M89 138L0 187L82 238Z" fill="#00101c" stroke="#00101c"></path><path d="M622 368L709 295L628 288Z" fill="#277297" stroke="#277297"></path><path d="M639 233L700 131L602 127Z" fill="#205a7a" stroke="#205a7a"></path><path d="M602 127L623 0L514 81Z" fill="#00101c" stroke="#00101c"></path><path d="M732 420L709 295L622 368Z" fill="#1d4e6b" stroke="#1d4e6b"></path><path d="M732 420L622 368L727 496Z" fill="#00101c" stroke="#00101c"></path><path d="M160 0L138 0L195 64Z" fill="#19435d" stroke="#19435d"></path><path d="M0 395L0 494L88 490Z" fill="#0c2435" stroke="#0c2435"></path><path d="M530 600L601 600L566 519Z" fill="#081a28" stroke="#081a28"></path><path d="M0 494L78 600L88 490Z" fill="#081a28" stroke="#081a28"></path><path d="M738 231L700 131L639 233Z" fill="#277297" stroke="#277297"></path><path d="M727 496L622 368L566 519Z" fill="#277297" stroke="#277297"></path><path d="M709 295L738 231L639 233Z" fill="#297ea6" stroke="#297ea6"></path><path d="M807 305L738 231L709 295Z" fill="#1d4e6b" stroke="#1d4e6b"></path><path d="M138 0L0 89L89 138Z" fill="#15384f" stroke="#15384f"></path><path d="M700 131L623 0L602 127Z" fill="#19435d" stroke="#19435d"></path><path d="M665 600L727 496L566 519Z" fill="#205a7a" stroke="#205a7a"></path><path d="M601 600L665 600L566 519Z" fill="#19435d" stroke="#19435d"></path><path d="M0 494L0 600L78 600Z" fill="#00101c" stroke="#00101c"></path><path d="M800 490L789 392L732 420Z" fill="#246688" stroke="#246688"></path><path d="M732 420L789 392L709 295Z" fill="#19435d" stroke="#19435d"></path><path d="M138 0L0 0L0 89Z" fill="#1d4e6b" stroke="#1d4e6b"></path><path d="M789 392L807 305L709 295Z" fill="#00101c" stroke="#00101c"></path><path d="M738 231L796 191L700 131Z" fill="#19435d" stroke="#19435d"></path><path d="M700 131L703 0L623 0Z" fill="#19435d" stroke="#19435d"></path><path d="M807 305L796 191L738 231Z" fill="#1d4e6b" stroke="#1d4e6b"></path><path d="M796 191L782 129L700 131Z" fill="#15384f" stroke="#15384f"></path><path d="M782 129L703 0L700 131Z" fill="#15384f" stroke="#15384f"></path><path d="M777 600L800 490L727 496Z" fill="#00101c" stroke="#00101c"></path><path d="M727 496L800 490L732 420Z" fill="#15384f" stroke="#15384f"></path><path d="M900 362L900 335L807 305Z" fill="#1d4e6b" stroke="#1d4e6b"></path><path d="M665 600L777 600L727 496Z" fill="#205a7a" stroke="#205a7a"></path><path d="M900 105L783 0L782 129Z" fill="#297ea6" stroke="#297ea6"></path><path d="M782 129L783 0L703 0Z" fill="#246688" stroke="#246688"></path><path d="M900 179L782 129L796 191Z" fill="#112e42" stroke="#112e42"></path><path d="M900 362L807 305L789 392Z" fill="#297ea6" stroke="#297ea6"></path><path d="M807 305L900 179L796 191Z" fill="#112e42" stroke="#112e42"></path><path d="M900 362L789 392L900 466Z" fill="#205a7a" stroke="#205a7a"></path><path d="M900 466L789 392L800 490Z" fill="#0c2435" stroke="#0c2435"></path><path d="M900 335L900 179L807 305Z" fill="#246688" stroke="#246688"></path><path d="M900 600L900 466L800 490Z" fill="#19435d" stroke="#19435d"></path><path d="M900 179L900 105L782 129Z" fill="#15384f" stroke="#15384f"></path><path d="M777 600L900 600L800 490Z" fill="#19435d" stroke="#19435d"></path><path d="M900 105L900 0L783 0Z" fill="#297ea6" stroke="#297ea6"></path></g></svg>